<?xml version="1.0" standalone="no"?>
<!DOCTYPE svg PUBLIC "-//W3C//DTD SVG 20010904//EN"
 "http://www.w3.org/TR/2001/REC-SVG-20010904/DTD/svg10.dtd">
<svg version="1.0" xmlns="http://www.w3.org/2000/svg"
 width="250.000000pt" height="250.000000pt" viewBox="0 0 250.000000 250.000000"
 preserveAspectRatio="xMidYMid meet">

<g transform="translate(0.000000,250.000000) scale(0.100000,-0.100000)"
fill="#000000" stroke="none">
<path d="M1084 2214 c-16 -41 -19 -44 -30 -29 -7 9 -18 15 -25 13 -8 -3 -4
-12 11 -26 31 -29 21 -38 -13 -12 -14 11 -28 16 -31 11 -4 -5 6 -19 21 -30
l28 -21 -55 -51 c-72 -67 -123 -92 -183 -93 -56 0 -59 -19 -3 -24 44 -4 139
36 158 67 7 12 18 21 24 21 19 0 78 72 104 125 l23 48 19 -64 c11 -35 25 -84
32 -109 l13 -45 54 3 c59 4 185 -24 264 -58 58 -25 65 -25 65 -1 0 11 32 50
71 88 70 67 107 119 94 131 -4 4 -15 -4 -24 -18 -57 -86 -168 -175 -209 -167
-15 3 -72 15 -127 27 -55 12 -116 25 -135 28 -32 6 -37 12 -58 72 -13 36 -27
85 -31 110 -9 63 -34 65 -57 4z"/>
<path d="M965 2131 c-9 -15 18 -45 35 -39 8 2 6 11 -8 27 -14 18 -21 21 -27
12z"/>
<path d="M1719 2109 c-16 -31 -39 -118 -39 -150 0 -14 6 -33 13 -43 12 -16 14
-10 14 47 1 36 6 74 12 84 10 16 11 15 9 -7 -1 -14 1 -53 6 -87 8 -62 9 -63
34 -57 36 9 52 24 25 24 -34 0 -36 27 -2 34 37 7 29 26 -12 26 -16 0 -29 5
-29 10 0 6 17 10 37 10 40 0 35 16 -7 22 -23 3 -25 8 -26 52 -1 55 -16 70 -35
35z"/>
<path d="M2103 1988 c-30 -34 -45 -66 -38 -87 10 -34 -129 -198 -248 -292 -38
-30 -56 -39 -74 -34 -25 6 -32 -12 -12 -32 19 -19 97 38 206 150 111 114 153
173 153 215 0 15 8 38 17 51 16 23 17 23 24 5 3 -10 4 -51 2 -89 l-6 -70 36
-17 c40 -19 52 -45 43 -93 -9 -46 -66 -95 -110 -95 -37 0 -74 -25 -181 -120
-81 -72 -255 -213 -281 -228 -11 -6 -15 -16 -11 -26 9 -23 28 -12 118 72 41
38 127 114 193 170 92 79 125 102 148 102 69 0 148 75 148 141 0 51 -13 75
-50 94 l-30 15 6 73 c5 48 3 81 -5 95 -15 28 -22 28 -48 0z"/>
<path d="M715 1900 c7 -11 83 -50 97 -50 22 0 3 20 -37 39 -49 23 -70 27 -60
11z"/>
<path d="M1280 1864 c-86 -22 -203 -66 -220 -81 -12 -11 -10 -13 15 -13 17 0
44 7 60 16 43 23 128 54 133 49 5 -5 -18 -77 -29 -89 -6 -6 -13 -6 -21 2 -16
16 -28 15 -28 -3 0 -8 13 -24 30 -36 23 -18 27 -25 18 -36 -8 -10 -8 -20 2
-37 7 -13 9 -29 5 -36 -22 -36 -144 -53 -181 -25 -17 13 -17 14 -1 15 24 0 22
21 -3 27 -32 9 -23 26 10 20 36 -8 51 10 15 19 -14 3 -25 11 -25 16 0 10 27 6
64 -8 9 -3 16 -1 16 4 0 6 -9 14 -21 17 -15 5 -18 10 -10 18 8 8 14 8 23 -1
14 -14 28 -16 28 -2 0 21 -40 31 -73 19 -29 -10 -41 -8 -107 20 -69 29 -96 33
-74 11 5 -5 36 -20 69 -34 76 -31 86 -52 21 -43 -25 4 -58 10 -72 13 -20 5
-25 3 -22 -7 3 -8 28 -18 61 -23 40 -6 57 -13 57 -23 0 -12 -12 -14 -57 -12
-33 2 -60 0 -63 -6 -3 -6 19 -11 55 -13 50 -2 63 -7 81 -28 23 -28 85 -47 123
-37 22 5 23 3 17 -18 -13 -49 -19 -146 -8 -153 14 -8 55 46 83 108 16 37 24
46 37 40 66 -28 89 -28 144 -1 48 23 59 25 93 16 21 -6 49 -18 61 -26 24 -15
43 -2 21 15 -10 8 -61 27 -104 38 -7 2 -13 8 -13 14 0 6 8 9 18 6 45 -13 102
-17 102 -8 0 13 -88 32 -150 32 -52 0 -67 -13 -27 -24 l22 -5 -22 -22 c-43
-43 -153 -21 -153 31 0 9 11 26 25 38 14 12 25 29 25 37 0 10 10 15 34 15 44
0 66 9 66 26 0 11 -9 13 -39 8 -51 -8 -57 5 -31 63 l22 48 48 -54 c44 -50 70
-60 70 -27 0 15 -138 146 -153 145 -7 0 -37 -7 -67 -15z m10 -204 c0 -5 -7
-10 -15 -10 -8 0 -15 5 -15 10 0 6 7 10 15 10 8 0 15 -4 15 -10z m-47 -132
c-7 -40 -52 -132 -60 -124 -8 8 17 128 29 144 21 25 38 14 31 -20z"/>
<path d="M1730 1839 c0 -12 15 -36 34 -55 19 -19 43 -34 55 -34 31 0 26 14
-11 31 -19 8 -39 28 -48 46 -17 37 -30 42 -30 12z"/>
<path d="M730 1840 c0 -13 48 -35 57 -27 8 8 -26 36 -44 37 -7 0 -13 -5 -13
-10z"/>
<path d="M720 1781 c0 -5 13 -23 30 -39 32 -33 54 -24 24 10 -24 25 -54 42
-54 29z"/>
<path d="M2083 1763 c-24 -9 -13 -23 17 -23 25 0 30 -4 30 -24 0 -14 -7 -32
-16 -41 -18 -17 -70 -46 -81 -44 -4 0 -9 -4 -11 -10 -11 -33 96 13 121 53 23
35 21 62 -5 80 -23 16 -34 18 -55 9z"/>
<path d="M1740 1720 c0 -5 18 -10 41 -10 24 0 38 4 34 10 -3 6 -22 10 -41 10
-19 0 -34 -4 -34 -10z"/>
<path d="M1710 1670 c0 -5 20 -10 45 -10 25 0 45 5 45 10 0 6 -20 10 -45 10
-25 0 -45 -4 -45 -10z"/>
<path d="M693 1633 c-52 -57 -152 -226 -158 -266 -1 -12 -14 -61 -28 -108 -38
-127 -53 -265 -40 -366 12 -96 89 -275 120 -281 32 -7 124 -39 126 -45 1 -3
-38 -60 -87 -127 l-89 -122 29 -24 c16 -13 60 -40 97 -60 l68 -36 85 13 c60 9
88 9 95 2 8 -8 2 -13 -20 -18 -17 -4 -31 -11 -31 -16 0 -9 49 -6 136 7 48 7
314 6 400 -2 72 -7 77 -6 70 11 -6 15 -2 17 29 12 19 -3 35 -2 35 4 0 5 7 9
16 9 10 0 14 7 12 23 -3 21 -9 22 -118 29 -63 4 -220 6 -348 6 -156 0 -237 3
-244 10 -8 8 -2 22 23 51 40 46 49 49 49 18 0 -13 6 -31 13 -40 11 -15 23 -13
152 28 199 65 225 75 225 90 0 13 -49 40 -85 47 -29 5 -29 38 0 178 14 67 25
126 25 131 0 5 -16 15 -35 23 -47 20 -297 86 -324 86 -28 0 -27 -18 2 -24 215
-45 327 -80 327 -101 0 -20 -30 -176 -40 -210 -5 -16 -6 -45 -2 -64 7 -30 13
-36 50 -45 24 -6 42 -15 41 -21 -4 -14 -204 -74 -266 -80 -64 -6 -67 1 -57
125 4 58 3 90 -3 90 -11 0 -23 -55 -23 -110 0 -28 -11 -47 -57 -99 l-57 -64
28 -24 c16 -13 27 -26 24 -28 -2 -2 -30 -5 -63 -6 -48 -1 -73 4 -125 28 -116
54 -115 45 -25 163 110 145 98 137 185 129 84 -6 120 6 44 15 -139 18 -194 29
-242 51 -51 23 -55 28 -94 111 -53 113 -66 202 -50 330 29 229 135 481 231
552 17 12 31 27 31 32 0 19 -31 10 -57 -17z m260 -1400 c-7 -2 -19 -2 -25 0
-7 3 -2 5 12 5 14 0 19 -2 13 -5z m435 -20 c-27 -2 -69 -2 -95 0 -27 2 -5 3
47 3 52 0 74 -1 48 -3z"/>
<path d="M1426 1641 c-3 -5 20 -12 52 -16 31 -4 84 -13 117 -20 32 -8 61 -12
64 -9 11 11 -20 24 -98 38 -95 18 -127 20 -135 7z"/>
<path d="M1710 1616 c0 -16 37 -29 45 -16 3 5 -3 14 -14 19 -26 14 -31 14 -31
-3z"/>
<path d="M1115 1410 c-4 -27 -2 -49 8 -69 8 -16 11 -33 6 -38 -4 -4 -18 -37
-31 -72 -13 -36 -28 -66 -35 -68 -23 -8 -84 61 -103 116 -19 56 -37 54 -26 -4
11 -56 77 -120 154 -149 78 -30 85 -31 101 -12 17 20 59 26 73 9 6 -8 18 -11
25 -9 11 4 13 0 8 -15 -4 -11 -1 -26 5 -34 6 -8 10 -26 8 -42 -7 -62 -201
-121 -229 -70 -8 14 -14 15 -30 6 -47 -25 -172 23 -247 95 -54 51 -86 113
-102 194 -11 54 -10 65 4 87 14 21 14 25 2 25 -47 0 -44 -117 4 -216 53 -108
177 -199 289 -212 27 -3 52 -13 61 -23 14 -18 19 -18 80 -4 93 22 145 44 170
70 23 25 26 43 17 113 -3 23 -2 42 3 42 5 0 22 25 39 57 36 67 34 72 -47 101
-91 33 -99 34 -116 17 -10 -11 -24 -14 -38 -9 -20 6 -19 7 10 20 41 17 85 61
76 75 -4 7 -20 -3 -42 -25 -19 -20 -42 -36 -50 -34 -19 4 -33 52 -25 89 3 17
1 29 -5 29 -6 0 -13 -18 -17 -40z m218 -152 l38 -19 -28 -49 c-38 -68 -63 -67
-27 1 19 37 10 51 -46 68 -49 14 -55 36 -7 26 17 -4 49 -16 70 -27z m-107 -13
c72 -33 74 -35 62 -60 -8 -17 -19 -25 -37 -25 -14 0 -39 -7 -55 -15 -32 -17
-64 -19 -85 -6 -9 6 -10 11 -2 15 6 4 10 21 10 39 -1 33 16 87 27 87 3 0 40
-16 80 -35z"/>
<path d="M1565 1164 c-26 -67 -161 -266 -240 -351 -61 -67 -73 -93 -42 -93 13
0 55 49 103 120 16 25 61 90 99 145 79 115 122 202 108 216 -6 6 -16 -7 -28
-37z"/>
</g>
</svg>
